<?xml version="1.0" encoding="utf-8"?>
<!-- Generator: Adobe Illustrator 19.2.1, SVG Export Plug-In . SVG Version: 6.00 Build 0)  -->
<svg version="1.1" id="Layer_1" xmlns="http://www.w3.org/2000/svg" xmlns:xlink="http://www.w3.org/1999/xlink" x="0px" y="0px"
	 viewBox="0 0 16 16" style="enable-background:new 0 0 16 16;" xml:space="preserve">
<style type="text/css">
	.st0{fill:#828282;}
</style>
<path class="st0" d="M16,3.1c-0.6,0.3-1.2,0.4-1.9,0.5c0.7-0.4,1.2-1,1.4-1.8c-0.6,0.4-1.3,0.6-2.1,0.8c-0.6-0.6-1.4-1-2.4-1
	C9.3,1.5,7.8,3,7.8,4.8c0,0.3,0,0.5,0.1,0.7C5.2,5.4,2.8,4.1,1.1,2.1c-0.3,0.5-0.4,1-0.4,1.6c0,1.1,0.6,2.1,1.5,2.7
	c-0.5,0-1-0.2-1.5-0.4c0,0,0,0,0,0c0,1.6,1.1,2.9,2.6,3.2C3,9.4,2.7,9.4,2.4,9.4c-0.2,0-0.4,0-0.6-0.1c0.4,1.3,1.6,2.2,3.1,2.3
	c-1.1,0.9-2.5,1.4-4.1,1.4c-0.3,0-0.5,0-0.8,0c1.4,0.9,3.2,1.5,5,1.5c6,0,9.3-5,9.3-9.3c0-0.1,0-0.3,0-0.4C15,4.3,15.5,3.7,16,3.1z"
	/>
<g>
	<path d="M-318.6,146h-54c-1.8,0-3.4,1.5-3.4,3.4v54c0,1.9,1.5,3.4,3.4,3.4h29.1v-23.5h-7.9V174h7.9v-6.8c0-7.8,4.8-12.1,11.8-12.1
		c3.4,0,6.2,0.3,7.1,0.4v8.2l-4.9,0c-3.8,0-4.5,1.8-4.5,4.5v5.9h9.1l-1.2,9.2h-7.9v23.5h15.5c1.9,0,3.4-1.5,3.4-3.4v-54
		C-315.3,147.5-316.8,146-318.6,146z"/>
</g>
</svg>
