<?xml version="1.0" encoding="utf-8"?>
<!-- Generator: Adobe Illustrator 19.2.1, SVG Export Plug-In . SVG Version: 6.00 Build 0)  -->
<svg version="1.1" id="Layer_1" xmlns="http://www.w3.org/2000/svg" xmlns:xlink="http://www.w3.org/1999/xlink" x="0px" y="0px"
	 viewBox="0 0 16 16" style="enable-background:new 0 0 16 16;" xml:space="preserve">
<style type="text/css">
	.st0{fill:#828282;}
</style>
<title>icon-facebook</title>
<g>
	<g>
		<path class="st0" d="M14.6,14.3c0.4,0,0.7-0.1,0.9-0.4L11,9.4c-0.1,0.1-0.2,0.2-0.3,0.2c-0.3,0.2-0.6,0.4-0.8,0.6
			c-0.2,0.1-0.5,0.3-0.8,0.4c-0.4,0.1-0.7,0.2-1,0.2h0h0c-0.3,0-0.6-0.1-1-0.2c-0.4-0.1-0.6-0.3-0.8-0.4C6,10.1,5.7,9.9,5.3,9.6
			C5.2,9.6,5.1,9.5,5,9.4l-4.5,4.5c0.3,0.2,0.6,0.4,0.9,0.4H14.6z"/>
		<path class="st0" d="M0.9,6.5C0.6,6.3,0.3,6.1,0,5.8v6.9l4-4C3.2,8.1,2.2,7.4,0.9,6.5z"/>
		<path class="st0" d="M15.1,6.5c-1.2,0.8-2.2,1.5-3.1,2.1l4,4V5.8C15.7,6.1,15.4,6.3,15.1,6.5z"/>
		<path class="st0" d="M14.6,1.7H1.4C1,1.7,0.6,1.9,0.4,2.2C0.1,2.5,0,2.9,0,3.3c0,0.4,0.2,0.8,0.5,1.2c0.3,0.4,0.7,0.8,1,1
			c0.2,0.1,0.8,0.6,1.8,1.3c0.5,0.4,1,0.7,1.4,1c0.4,0.2,0.7,0.5,0.9,0.6c0,0,0.1,0.1,0.1,0.1c0.1,0,0.1,0.1,0.2,0.2
			C6.3,8.9,6.4,9,6.6,9.1C6.7,9.2,6.8,9.3,7,9.4c0.2,0.1,0.4,0.2,0.5,0.2C7.7,9.7,7.9,9.7,8,9.7h0h0c0.1,0,0.3,0,0.4-0.1
			C8.6,9.6,8.8,9.5,9,9.4c0.2-0.1,0.3-0.2,0.5-0.3C9.6,9,9.7,8.9,9.9,8.8c0.1-0.1,0.2-0.1,0.2-0.2c0.1,0,0.1-0.1,0.1-0.1
			c0.2-0.1,0.5-0.3,0.9-0.6c0.7-0.5,1.8-1.3,3.3-2.3c0.4-0.3,0.8-0.7,1.1-1.1C15.9,4.1,16,3.6,16,3.1c0-0.4-0.1-0.7-0.4-1
			C15.3,1.9,15,1.7,14.6,1.7z"/>
	</g>
</g>
</svg>
